<svg xmlns:xlink="http://www.w3.org/1999/xlink" xmlns="http://www.w3.org/2000/svg" version="1.1" viewBox="0 0 100 100" height="100px" width="100px">
    <title>编组 47</title>
    <defs>
        <linearGradient id="linearGradient-1" y2="61.1205493%" x2="160.484338%" y1="45.0138504%" x1="-4.14335719%">
            <stop offset="0%" stop-color="#21BA96"></stop>
            <stop offset="100%" stop-color="#21BA96"></stop>
        </linearGradient>
        <linearGradient id="linearGradient-2" y2="138.524795%" x2="125.459287%" y1="-21.2608636%" x1="-21.6355944%">
            <stop offset="0%" stop-color="#33AFFF"></stop>
            <stop offset="100%" stop-color="#405CFF"></stop>
        </linearGradient>
        <linearGradient id="linearGradient-3" y2="127.497574%" x2="120.970474%" y1="0%" x1="5.70934256%">
            <stop offset="0%" stop-color="#33AFFF"></stop>
            <stop offset="100%" stop-color="#405CFF"></stop>
        </linearGradient>
    </defs>
    <g fill-rule="evenodd" fill="none" stroke-width="1" stroke="none" id="页面-1">
        <g transform="translate(-500.000000, -1780.000000)" id="企业版">
            <g transform="translate(500.000000, 1780.000000)" id="编组-118">
                <rect height="100" width="100" y="0" x="0" id="矩形备份-46"></rect>
                <g transform="translate(5.000000, 20.000000)" id="编组-117">
                    <rect height="75" width="47.5" y="0" x="0" fill="#C0D5FB" id="矩形备份-31"></rect>
                    <rect height="15" width="47.5" y="0" x="0" fill="url(#linearGradient-1)" id="矩形"></rect>
                </g>
                <circle r="3.75" cy="27.5" cx="42.5" fill="#FFFFFF" id="椭圆形"></circle>
                <circle r="3.125" cy="8.125" cx="8.125" fill="#333333" id="椭圆形备份-17"></circle>
                <circle r="3.125" cy="8.125" cx="20.625" fill="#333333" id="椭圆形备份-18"></circle>
                <circle r="3.125" cy="91.875" cx="91.875" fill="#21BA96" id="椭圆形备份-19"></circle>
                <rect height="10" width="32.5" y="42.5" x="12.5" stroke-width="2" stroke="#333333" id="矩形"></rect>
                <rect height="10" width="32.5" y="60" x="12.5" stroke-width="2" stroke="#333333" id="矩形备份-47"></rect>
                <rect height="10" width="32.5" y="77.5" x="12.5" stroke-width="2" stroke="#333333" id="矩形备份-48"></rect>
                <rect height="35.5" width="35.5" y="6" x="58.5" stroke-width="2" stroke="#333333" id="矩形备份-26"></rect>
                <polyline points="56.9031408 67.2043711 76.9031408 67.2043711 76.9031408 47.2043711" stroke-width="2" stroke="#333333" id="路径-6"></polyline>
                <path fill="#21BA96" id="形状" d="M73.8806954,23.1567722 L68.1802279,20.2883897 L68.1622737,20.2793249 C67.9057847,20.1575967 67.6492958,20.0980276 67.4030664,20.0980276 C67.0990293,20.0918052 66.8040984,20.2029644 66.5784543,20.408823 C66.3656092,20.6128576 66.2466316,20.8972528 66.2500726,21.1935813 L66.2500726,28.9323865 C66.2500726,29.2548367 66.3822402,29.6109564 66.6233399,29.9347016 C66.8593097,30.2532669 67.1837683,30.5213279 67.5364406,30.6896754 L73.2330607,33.5580579 L73.2497325,33.5671228 L73.2548623,33.5684177 C73.5139161,33.6888509 73.7691227,33.749715 74.0127872,33.7497151 C74.3172863,33.7564013 74.6127816,33.6452023 74.8386817,33.4389197 C75.0518564,33.2345776 75.1708631,32.9496433 75.1669876,32.6528663 L75.1669876,24.9166511 C75.1669876,24.5929059 75.0336133,24.2367862 74.7937961,23.913041 C74.5535468,23.5908085 74.2398864,23.3318302 73.8794129,23.1580672 L73.8794129,23.1567722 L73.8806954,23.1567722 Z M85.9228527,20.408823 C85.6969526,20.2025403 85.4014573,20.0913413 85.0969582,20.0980276 C84.8494463,20.0980276 84.5955223,20.1588917 84.3377508,20.2793249 L78.6206116,23.1580672 C78.2679393,23.3264147 77.9434807,23.5944757 77.7075109,23.911746 C77.4664112,24.2354912 77.3343194,24.5942009 77.3343194,24.9153561 L77.3343194,32.6528663 C77.3343194,32.9597768 77.4510219,33.2381976 77.6626253,33.4389197 C77.8729463,33.6396417 78.1666261,33.7497151 78.4872374,33.7497151 L78.4910847,33.7497151 C78.7539859,33.7458301 79.0156046,33.6823761 79.250292,33.5671228 L84.9404999,30.6896754 C85.2944547,30.521328 85.6201957,30.2532669 85.8548831,29.9347016 C86.0959828,29.6109564 86.2267921,29.2535417 86.2267921,28.9310915 L86.2499393,21.1935813 C86.2530813,20.8973146 86.1341542,20.6130401 85.9215703,20.408823 L85.9228527,20.408823 Z M83.8965898,17.8900853 C84.4005907,17.644039 84.6865759,17.2529547 84.6840281,16.8152512 C84.6801636,16.3814327 84.3954609,15.9981184 83.8991547,15.7637269 L77.563877,12.7503066 C77.1728349,12.5788037 76.7500338,12.4935935 76.3237529,12.5003753 C75.8415536,12.5003753 75.3747437,12.5974988 75.0143767,12.7723212 L68.6111294,15.9165346 C68.108411,16.1625809 67.8211434,16.5536651 67.8249526,16.9913686 C67.8275556,17.4251872 68.1135408,17.8097965 68.6085645,18.042893 L74.9438422,21.0563134 C75.1875067,21.1715666 75.482469,21.2505605 75.7992329,21.285525 L75.7761489,21.3075396 L76.1852488,21.3075396 C76.6661656,21.3075396 77.1316931,21.2091211 77.4959075,21.0330037 L83.8965898,17.8913803 L83.8965898,17.8900853 Z"></path>
            </g>
        </g>
    </g>
</svg>